PathFileType	4	(X/Y/Z)	Apose_0-50.trc
DataRate	CameraRate	NumFrames	NumMarkers	Units	OrigDataRate	OrigDataStartFrame	OrigNumFrames
30	30	6	22	m	30	0	50
Frame#	Time	Hip			RHip			RKnee			RAnkle			RBigToe			RSmallToe			RHeel			LHip			LKnee			LAnkle			LBigToe			LSmallToe			LHeel			Neck			Head			Nose			RShoulder			RElbow			RWrist			LShoulder			LElbow			LWrist		
		X1	Y1	Z1	X2	Y2	Z2	X3	Y3	Z3	X4	Y4	Z4	X5	Y5	Z5	X6	Y6	Z6	X7	Y7	Z7	X8	Y8	Z8	X9	Y9	Z9	X10	Y10	Z10	X11	Y11	Z11	X12	Y12	Z12	X13	Y13	Z13	X14	Y14	Z14	X15	Y15	Z15	X16	Y16	Z16	X17	Y17	Z17	X18	Y18	Z18	X19	Y19	Z19	X20	Y20	Z20	X21	Y21	Z21	X22	Y22	Z22
1	0.0333333333333333	0.04882617832989047	0.9202667846897433	0.3704820489810699	0.04491214990475397	0.8811502421929505	0.4798515059602915	0.012357923087031628	0.509995560548113	0.49588576567677567	-0.004007417040501026	0.1129935811092164	0.5170109101160213	0.18886466131144364	0.04835538532760228	0.5645650811421411	0.15177353349776215	0.023580147939487275	0.6138553010529048	-0.04307746516851077	0.04272551673683446	0.49772867927728903	0.049186333795335824	0.8800947084078078	0.26408719617105203	0.02607505366811897	0.5086237011045004	0.2305634632577967	0.0019374485303417907	0.1231736936802376	0.20721943894600364	0.21343048160041006	0.04798282027921938	0.18624086156543954	0.17561514345433082	0.029433928015357786	0.13977456623177203	-0.03830157097414525	0.04667145016487711	0.21997401885060908	0.044532279599720295	1.5785623493777665	0.3570976056997856	0.23860973007311184	1.815122605855389	0.2598696200288607	0.20916222038940147	1.6435244255849641	0.3294486716962395	0.025754655060913158	1.4884759965314986	0.5502224047779782	0.10869652191130695	1.2309165754897513	0.7307772737186925	0.1772875919435186	1.0373984208294036	0.8909327349349645	0.00042270636416667383	1.479288694824359	0.1685472880948512	0.02572785990504005	1.223768226332387	0.010735095291565171	0.08114307881727688	1.0186111877064628	-0.13393903725957645
2	0.0666666666666666	0.04557888879535421	0.9210771517585179	0.369008812404105	0.03986036064443804	0.8814184598382849	0.47678137755568967	0.011212059023560702	0.5090217747690631	0.4973161907409049	-0.004047860578080516	0.11207709927422332	0.5170696685370216	0.19003551323157145	0.042450555324330876	0.5623971388374934	0.15018348781533158	0.026922122913146877	0.6191157094039668	-0.04151298133829234	0.04053339590278075	0.49778493962491976	0.04366098233853811	0.8810480583843503	0.2605804303597542	0.02263323380880224	0.5086967574242209	0.23040578264549544	0.003493293139078965	0.12086035594347658	0.20782433818402515	0.21512140804674612	0.046138785193956866	0.1880986008240837	0.17166251250237546	0.03171319637304433	0.13420882232406622	-0.03974813622066865	0.04691235413274071	0.2160487167677169	0.049537930981408115	1.5804520565943678	0.35838435149482495	0.25875850913072984	1.7994071548150268	0.2704908100960611	0.2183712264161745	1.6224602051822192	0.33075785968835464	0.02527717618182202	1.4883512276438962	0.5478931792389631	0.10143074259612678	1.2314576279523357	0.7290663211925887	0.1648823019818838	1.0392332723826427	0.8928497035654371	0.004134969222071966	1.4788254477301697	0.1634510901428225	0.021939172380401672	1.2250759913480647	0.009428451457307155	0.07124288636131355	1.0165731556454882	-0.13860006488980953
3	0.1	0.04227110237011508	0.9218688356578264	0.3675583794862497	0.035063718903667315	0.881985758886594	0.47395066455133517	0.009720694614949293	0.5082300662911671	0.4985349391037812	-0.004118462700449547	0.11128556388509345	0.5169815166412954	0.19169708105596242	0.037552369846197385	0.5613418604199182	0.14920453272617382	0.028888329621713883	0.62350097530154	-0.040226802639128104	0.03875059735031691	0.4978761399872402	0.038506487067083234	0.8824941106926809	0.2573710554826371	0.019148546122275872	0.5089179112954428	0.23013740823676143	0.004702726092910033	0.11903270182266612	0.20838594583089962	0.21662441189851006	0.04485730627786565	0.18962602696437914	0.16865497136597132	0.03345064311218763	0.12981634018507762	-0.041296482266522175	0.047528169436266525	0.21196975532184437	0.05382587810074188	1.5810844196189122	0.35915347977082934	0.27716092346512305	1.785133214631627	0.2797761300445417	0.2298189989984875	1.6050038875470702	0.3318866226177711	0.02476542478153304	1.48855194558356	0.5455998930767587	0.09434700561032051	1.2319527425201449	0.7277070876104298	0.15339452583456106	1.0409083891210105	0.8947887214459022	0.007709152787811166	1.478652905172441	0.1592670097643558	0.018271128493593216	1.2263685774626745	0.008035287362336906	0.0619836966015598	1.0148602551958397	-0.14282200240621504
4	0.1333333333333333	0.0391280316985499	0.9226341504887293	0.36620138494806515	0.03089522201420436	0.883006052502855	0.47150356683772315	0.007860017451192152	0.5077695037530604	0.49938666722843444	-0.004270278661422207	0.11075695138049779	0.5167353540979122	0.19392216253488118	0.03395797661122052	0.56172068817828	0.14912903331599095	0.02883411330648345	0.6264929618213363	-0.03941310059066822	0.03762119997577735	0.4981110262135396	0.03409762844149823	0.8846704614146083	0.2546199834082093	0.015739412109859227	0.5093584604959593	0.22973661526043432	0.005321082978661712	0.11798364061819765	0.20878814702434428	0.21764577796171697	0.044237911307303035	0.19074032281090336	0.1669005016763097	0.03443798747100492	0.127113209692423	-0.0428651050084112	0.04855631261048232	0.20791954074579827	0.05672548339812649	1.579654707444739	0.35900901630785015	0.2895891351081974	1.7735496653541074	0.2890753291570222	0.2449719744798386	1.5942259789000868	0.3328263763150346	0.02408154716384203	1.4891853998682179	0.5433641154596862	0.08759010198546828	1.232321872068143	0.7267719345502385	0.1437499214047771	1.0423103314023068	0.8966068246627465	0.01097972746150984	1.4788495211928003	0.15650597382285883	0.0150785307318418	1.2275266829953477	0.0067140314873483705	0.05433730348769829	1.0136106828100437	-0.14622530221810792
5	0.1666666666666666	0.036506499360644394	0.9233552232107021	0.3649900196228344	0.027657818212673373	0.8844759956915286	0.46946972387147196	0.005904518837268181	0.507657851373422	0.49984222366497744	-0.004554758587475101	0.11061029137830905	0.5164519383999382	0.19636290536777687	0.03142095234174465	0.5631127834754577	0.14987923040400433	0.027038415158131327	0.6280187873593531	-0.03909786809148658	0.03719591065745711	0.49856146084616737	0.03065427277321509	0.8874502385186305	0.2522833726536969	0.012662941746237699	0.5099919871655777	0.2292340202195839	0.00534793870368808	0.11764983943433892	0.2089262790070407	0.21802454893334894	0.044085386143822	0.19149745885779731	0.1661109771903784	0.0348132952595733	0.1259038660516011	-0.044164959486467495	0.04983650808372212	0.20434587010898442	0.05812517012106319	1.5764229838360635	0.3579151062322312	0.29321090890804996	1.7653390636279191	0.29996954394453906	0.2636295648511018	1.5911510709418488	0.3336285786563976	0.02306611108121786	1.490160556727295	0.5411608729257417	0.0812198403679075	1.2325039065051377	0.7260550217146429	0.1364858931860363	1.0433732208087796	0.8981017419748302	0.01378960178251793	1.4792858451129358	0.15515886952928004	0.012746033023077825	1.2283924627605185	0.005721254497764333	0.04910929518483819	1.0127620010447753	-0.14863570690580452
6	0.2	0.034597053436663694	0.923959079612713	0.363907177385912	0.025363713302199303	0.8862237494873717	0.4678355854996667	0.004157345368267445	0.5077487823893908	0.5000004880162052	-0.004955151480662679	0.11081769538405005	0.516260281321186	0.1985579165319288	0.029752557174511706	0.5648797138137264	0.1510834103385988	0.024431817909170248	0.6283455467241038	-0.039062621450804386	0.037264276837202084	0.4990889700346273	0.028139635212540794	0.8903549102400161	0.250252575901027	0.010151019718790536	0.5107046808933837	0.2286652846643569	0.005004932354569636	0.11773060275834146	0.2088181528328304	0.2179059338076873	0.04419402785322609	0.19195803226775868	0.16586615225130133	0.034835531958242856	0.12566065278383157	-0.04503563833162475	0.05114394496391733	0.20164141539892672	0.058588978023230015	1.572556651862112	0.35622552336428687	0.2903717100366591	1.7604267654618793	0.31104586126118533	0.28321352956575696	1.5938764657897482	0.3342695498367551	0.021748241871164305	1.4913029175935537	0.5390026260861522	0.07537585204584517	1.2325397791780661	0.7253122604173633	0.1314486643877552	1.0440581169320269	0.8991500466784423	0.016029210444525186	1.479754675403953	0.154825438483099	0.011452939126456235	1.2288761534829689	0.00517492446023993	0.04650099428928133	1.0122092978784152	-0.15006814728479206
